<?xml version="1.0" standalone="no"?>
<!DOCTYPE svg PUBLIC "-//W3C//DTD SVG 20010904//EN"
 "http://www.w3.org/TR/2001/REC-SVG-20010904/DTD/svg10.dtd">
<svg version="1.0" xmlns="http://www.w3.org/2000/svg"
 width="1587.000000pt" height="912.000000pt" viewBox="0 0 1587.000000 912.000000"
 preserveAspectRatio="xMidYMid meet">

<g transform="translate(0.000000,912.000000) scale(0.100000,-0.100000)"
fill="#000000" stroke="none">
<path d="M2 7100 l3 -2021 30 -17 c16 -9 38 -25 49 -35 11 -9 25 -17 32 -17 7
0 14 -5 16 -11 2 -5 11 -11 20 -13 10 -1 29 -13 43 -26 14 -13 25 -20 25 -15
0 5 10 -1 23 -13 l22 -21 0 2102 0 2102 -133 3 -132 3 2 -2021z m253 -82 c0
-1902 -1 -2085 -16 -2072 -9 8 -18 12 -21 9 -2 -3 -15 7 -29 21 l-24 26 0
2052 0 2052 45 -1 45 -1 0 -2086z"/>
<path d="M179 9095 c-1 0 -2 -922 -3 -2048 l-1 -2048 22 -21 c13 -12 23 -18
23 -14 0 5 6 4 13 -2 10 -8 12 405 12 2062 l0 2072 -32 0 c-18 0 -34 0 -34 -1z
m56 -2067 c0 -2133 1 -2078 -38 -2039 -9 9 -12 443 -12 2055 l0 2043 25 -2 25
-1 0 -2056z"/>
<path d="M199 9076 c-1 -1 -2 -918 -3 -2039 -1 -1621 2 -2041 11 -2049 7 -6
14 -9 14 -7 1 2 2 925 3 2050 1 2001 0 2062 -25 2045z m16 -2051 c0 -1118 -2
-2031 -5 -2028 -3 2 -5 920 -5 2038 0 1118 2 2031 5 2028 3 -2 5 -920 5 -2038z"/>
</g>
</svg>
